<svg width="206" height="40" viewBox="0 0 206 40" fill="none" xmlns="http://www.w3.org/2000/svg">
<path d="M63.5156 12.4062C61.3802 12.4062 59.474 13.2448 57.7969 14.9219C56.1302 16.599 55.2969 18.526 55.2969 20.7031C55.2969 22.5365 55.9062 24.0729 57.125 25.3125C58.3542 26.5417 59.9323 27.1562 61.8594 27.1562C63.974 27.1562 65.8698 26.3385 67.5469 24.7031C69.2344 23.0573 70.0781 21.1042 70.0781 18.8438C70.0781 17.0104 69.4583 15.4792 68.2188 14.25C66.9792 13.0208 65.4115 12.4062 63.5156 12.4062ZM50.2656 20.9844C50.2656 17.6094 51.6302 14.625 54.3594 12.0312C57.099 9.42708 60.2604 8.125 63.8438 8.125C67.1458 8.125 69.849 9.14583 71.9531 11.1875C74.0573 13.2188 75.1094 15.6823 75.1094 18.5781C75.1094 20.8385 74.4792 22.9688 73.2188 24.9688C71.9583 26.9583 70.2865 28.5417 68.2031 29.7188C66.1302 30.8958 63.9271 31.4844 61.5938 31.4844C58.2917 31.4844 55.5781 30.4688 53.4531 28.4375C51.3281 26.3958 50.2656 23.9115 50.2656 20.9844Z" fill="#5946D7"/>
<path d="M97.5462 8.59375H102.343L97.6087 31H93.6087L85.4212 16.7344L82.4056 31H77.6087L82.3431 8.59375H86.3431L94.5462 22.875L97.5462 8.59375Z" fill="#5946D7"/>
<path d="M109.702 26.6875H121.702L120.796 31H103.999L108.733 8.59375H125.217L124.327 12.9219H112.639L111.686 17.4062H120.796L119.874 21.7188H110.749L109.702 26.6875Z" fill="#5946D7"/>
<path d="M125.92 31L130.654 8.59375H140.123C142.019 8.59375 143.613 9.23438 144.904 10.5156C146.206 11.7969 146.857 13.2917 146.857 15C146.857 16.1042 146.665 17.125 146.279 18.0625C145.894 18.9896 145.425 19.7188 144.873 20.25C144.331 20.7812 143.795 21.2292 143.264 21.5938C142.732 21.9583 142.274 22.2031 141.889 22.3281L141.311 22.5156L144.326 31H139.326L136.67 23.1562H132.389L130.717 31H125.92ZM138.217 18.8438C139.196 18.8438 140.061 18.5469 140.811 17.9531C141.571 17.349 141.951 16.5469 141.951 15.5469C141.951 14.8177 141.732 14.1979 141.295 13.6875C140.857 13.1771 140.279 12.9219 139.561 12.9219H134.561L133.279 18.8438H138.217Z" fill="#5946D7"/>
<g opacity="0.01">
<path d="M39.008 16.2793L37.5076 16.0991C36.2577 15.949 35.2473 15.0302 34.766 13.8669C34.2847 12.7036 34.3615 11.3605 35.1399 10.3711L36.0704 9.18843C36.4096 8.75485 36.3712 8.08448 35.9792 7.69409L32.3008 4.01424C31.9136 3.62546 31.2416 3.58386 30.8064 3.92304L29.6153 4.8598C28.6283 5.63612 27.2884 5.71131 26.1281 5.23119C24.9672 4.75087 24.0492 3.74301 23.9 2.49562L23.72 0.99196C23.6544 0.446382 23.1504 0 22.6 0H17.3968C16.8464 0 16.3424 0.446382 16.2784 0.99196L16.098 2.49383C15.948 3.74259 15.0284 4.75214 13.8663 5.23327C12.7049 5.71411 11.3649 5.63784 10.3765 4.86117L9.1888 3.92784C8.7568 3.58866 8.0848 3.62865 7.696 4.01744L4.016 7.69889C3.6288 8.08608 3.5888 8.75805 3.9296 9.19323L4.86075 10.3783C5.63775 11.3672 5.71355 12.7081 5.23298 13.8703C4.75203 15.0334 3.74189 15.9535 2.49219 16.1031L0.9936 16.2825C0.448 16.3465 0 16.8505 0 17.4025V22.6055C0 23.1559 0.4464 23.6567 0.9936 23.7239L2.49895 23.9047C3.74608 24.0545 4.75423 24.9701 5.2344 26.1308C5.71497 27.2925 5.64004 28.6343 4.86388 29.6232L3.9312 30.8116C3.5936 31.2451 3.632 31.9155 4.0224 32.3059L7.696 35.9874C8.0848 36.3745 8.7568 36.4177 9.1888 36.0786L10.3789 35.1418C11.3666 34.3645 12.7075 34.2887 13.8687 34.7696C15.0304 35.2507 15.9496 36.2592 16.0997 37.5077L16.28 39.008C16.3456 39.5552 16.848 40 17.3984 40H22.6016C23.1536 40 23.656 39.5552 23.72 39.008L23.9004 37.5071C24.0504 36.2585 24.9701 35.2488 26.1321 34.768C27.294 34.2872 28.6338 34.3637 29.6227 35.1404L30.8112 36.0738C31.2448 36.4129 31.9152 36.3729 32.304 35.9842L35.9824 32.3027C36.3728 31.9155 36.4128 31.2435 36.072 30.8068L35.1403 29.6227C34.3619 28.6335 34.2867 27.29 34.7679 26.1269C35.2478 24.9669 36.2551 24.0513 37.5015 23.9015L39.0064 23.7207C39.5536 23.6551 40 23.1559 40 22.6023V17.3993C40.0016 16.8457 39.5568 16.3449 39.008 16.2793ZM20.0016 29.9988C14.4784 29.9988 10.0016 25.5222 10.0016 19.9992C10.0016 14.4762 14.4784 9.9996 20.0016 9.9996C25.5248 9.9996 30.0016 14.4762 30.0016 19.9992C30.0016 25.5222 25.5264 29.9988 20.0016 29.9988Z" fill="#5946D7"/>
</g>
<g clip-path="url(#clip0_163:45301)">
<path fill-rule="evenodd" clip-rule="evenodd" d="M5.51565 26.8064H12.3333H12.3343H19.7776V27.137C19.7776 27.8937 20.3929 28.5087 21.1519 28.5087H22.8132C23.5717 28.5087 24.1869 27.8926 24.1869 27.137V25.8449C24.6895 25.2978 24.9997 24.5639 24.9997 23.7553V20.4234C25.0008 19.3022 24.3803 17.757 23.4305 16.9239L23.4169 16.9074C23.4051 16.8929 23.3934 16.8787 23.3788 16.8645L22.491 15.9852C23.2273 15.8138 24.0199 15.1807 24.0199 14.5313C24.0199 13.7746 22.9967 13.5061 22.1234 13.5061C21.2103 13.5061 21.1044 14.1481 21.0935 14.6018L18.803 12.3355C18.3377 11.8627 17.4551 11.4907 16.7954 11.4907H12.3343H12.3333H7.87127C7.28732 11.4907 6.52853 11.7826 6.03905 12.1779C5.47929 13.1748 5.02322 14.2377 4.68546 15.3521L6.70535 13.3426C7.02746 13.0672 7.59052 12.8582 7.87127 12.8582L11.0002 13L12.6374 13.3426H16.5503C16.6074 13.3426 16.6744 13.338 16.7477 13.3329C17.0347 13.3131 17.4177 13.2867 17.6743 13.5061L20.0002 16.3301H12.3343H12.3333H4.42277C4.19872 17.2848 4.06017 18.2724 4.01562 19.2845C4.74974 19.769 5.39 20.3598 5.39 20.7731C5.39 21.1781 4.77522 21.3368 4.05978 21.3938C4.11425 22.025 4.20538 22.6458 4.33102 23.254L6.10558 25.3445L4.91467 25.3456C5.09142 25.8443 5.29221 26.3318 5.51565 26.8064ZM12.3343 22.8192H16.5503C17.4292 22.8192 18.1428 21.7075 18.1428 20.3353H12.3343H12.3333H6.5249C6.5249 21.707 7.23841 22.8192 8.11738 22.8192H12.3333H12.3343ZM23.1177 24.5968C23.1844 24.5045 23.233 24.4132 23.2651 24.322C23.461 23.751 23.0546 23.2289 23.0546 23.2289H20.3593L18.561 25.3461H19.7776H20.0439H20.3102L21.8897 25.3488C22.3282 25.2097 22.6379 25.0452 22.8561 24.8696C22.9672 24.781 23.052 24.6886 23.1177 24.5968ZM22.1813 21.4107C22.3359 21.4068 22.4696 21.4035 22.5722 21.4035C23.3447 21.4035 23.9703 20.7391 23.9703 19.9193C23.9703 19.099 23.3447 18.433 22.5722 18.433C21.8008 18.433 19.2782 19.9538 19.2782 20.7731C19.2782 21.4834 21.1741 21.4359 22.1813 21.4107Z" fill="#5946D7"/>
</g>
<path fill-rule="evenodd" clip-rule="evenodd" d="M20 32C26.6274 32 32 26.6274 32 20C32 13.3726 26.6274 8 20 8C13.3726 8 8 13.3726 8 20C8 26.6274 13.3726 32 20 32ZM20 36C28.8366 36 36 28.8366 36 20C36 11.1634 28.8366 4 20 4C11.1634 4 4 11.1634 4 20C4 28.8366 11.1634 36 20 36Z" fill="#5946D7"/>
<defs>
<clipPath id="clip0_163:45301">
<rect width="19" height="26" fill="white" transform="translate(6 7)"/>
</clipPath>
</defs>
</svg>
